<svg width="40" height="40" viewBox="0 0 40 40" fill="none" xmlns="http://www.w3.org/2000/svg">
<circle cx="20" cy="20" r="20" fill="#FBFDFF"/>
<path d="M20 30.6665L19.2929 31.3736L20 32.0807L20.7071 31.3736L20 30.6665ZM21 10.6665C21 10.1142 20.5523 9.6665 20 9.6665C19.4477 9.6665 19 10.1142 19 10.6665L21 10.6665ZM11.2929 23.3736L19.2929 31.3736L20.7071 29.9594L12.7071 21.9594L11.2929 23.3736ZM20.7071 31.3736L28.7071 23.3736L27.2929 21.9594L19.2929 29.9594L20.7071 31.3736ZM21 30.6665L21 10.6665L19 10.6665L19 30.6665L21 30.6665Z" fill="#145CA8"/>
</svg>
