<svg width="34" height="21" viewBox="0 0 34 21" fill="none" xmlns="http://www.w3.org/2000/svg">
<path fillRule="evenodd" clipRule="evenodd" d="M16.0479 3.77383C14.222 1.9571 11.3714 2.80334 10.7792 5.33789C10.4683 6.6682 8.87181 6.94208 8.11205 5.79543C6.66454 3.6108 3.68832 3.76417 2.61126 6.07889L2.39088 6.5525C1.44411 8.58722 2.09764 11.1451 3.89982 12.4584L11.7286 18.1637L17.0797 10.1974C18.3115 8.3636 18.0264 5.74251 16.4214 4.14554L16.0479 3.77383ZM9.14092 3.8855C10.4813 0.484313 14.6127 -0.489028 17.3293 2.214L17.7028 2.58572C20.0715 4.94253 20.4922 8.81075 18.6743 11.5171L13.2547 19.5855C13.2496 19.5931 13.2443 19.6008 13.2391 19.6087C13.1599 19.7266 13.0645 19.8688 12.9691 19.9842C12.8563 20.1204 12.6822 20.2978 12.4205 20.4036C12.2446 20.4747 12.0562 20.507 11.8659 20.4987C11.5829 20.4864 11.3568 20.3776 11.203 20.2871C11.0728 20.2105 10.9331 20.1087 10.8173 20.0242C10.8096 20.0185 10.802 20.013 10.7945 20.0075L2.86532 14.2292C0.205645 12.2909 -0.758834 8.51598 0.638415 5.51313L0.858788 5.03953C2.46129 1.59556 6.68569 1.13546 9.14092 3.8855Z" fill="#F9DB6D"/>
<path d="M25.888 5.64066C27.3355 3.45602 30.3117 3.60939 31.3887 5.92411L31.6091 6.39772C32.5559 8.43244 31.9024 10.9903 30.1002 12.3037L22.2714 18.0089L18.2687 12.0501L17.0095 13.8691L20.7453 19.4307L20.761 19.454C20.8401 19.5719 20.9355 19.714 21.0309 19.8294C21.1437 19.9656 21.3178 20.1431 21.5795 20.2488C21.7554 20.3199 21.9438 20.3522 22.1341 20.344C22.4172 20.3317 22.6432 20.2228 22.797 20.1324C22.9273 20.0557 23.0669 19.9539 23.1827 19.8694L23.2055 19.8527L31.1347 14.0744C33.7944 12.1361 34.7588 8.3612 33.3616 5.35835L33.1412 4.88475C31.5387 1.44078 27.3143 0.98068 24.8591 3.73073C23.5187 0.329537 19.3873 -0.643798 16.6707 2.05923L16.2972 2.43095C13.9285 4.78776 13.5078 8.65598 15.3257 11.3623L15.8244 12.1047L17.0796 10.2798L16.9203 10.0426C15.6885 8.20882 15.9736 5.58774 17.5786 3.99077L17.9521 3.61906C19.778 1.80233 22.6286 2.64856 23.2208 5.18312C23.5317 6.51342 25.1282 6.7873 25.888 5.64066Z" fill="#5AA1EC"/>
</svg>
