<svg width="80" height="48" viewBox="0 0 80 48" fill="none" xmlns="http://www.w3.org/2000/svg">
<path fill-rule="evenodd" clip-rule="evenodd" d="M37.7597 7.85719C33.4636 3.49704 26.7562 5.52801 25.3627 11.6109C24.6313 14.8037 20.8748 15.461 19.0872 12.709C15.6813 7.46593 8.67839 7.834 6.14413 13.3893L5.62561 14.526C3.39791 19.4093 4.93562 25.5482 9.17606 28.7002L27.5968 42.3928L40.1875 23.2738C43.0859 18.8726 42.4151 12.582 38.6387 8.74931L37.7597 7.85719ZM21.508 8.1252C24.6619 -0.0376482 34.3828 -2.37367 40.7747 4.11361L41.6537 5.00572C47.227 10.6621 48.2169 19.9458 43.9395 26.4411L31.1875 45.8051C31.1754 45.8234 31.1632 45.842 31.1508 45.8609C30.9646 46.1439 30.7401 46.4851 30.5154 46.762C30.2502 47.0889 29.8405 47.5148 29.2247 47.7686C28.8108 47.9393 28.3676 48.0168 27.9198 47.997C27.2538 47.9675 26.7219 47.7063 26.36 47.4891C26.0536 47.3052 25.725 47.0608 25.4525 46.858C25.4343 46.8445 25.4164 46.8311 25.3987 46.818L6.74193 32.95C0.483871 28.2982 -1.78549 19.2384 1.50215 12.0315L2.02068 10.8949C5.79128 2.62934 15.731 1.52509 21.508 8.1252Z" fill="#F9DB6D"/>
<path d="M60.9128 12.3376C64.3188 7.09446 71.3216 7.46253 73.8559 13.0179L74.3744 14.1545C76.6021 19.0378 75.0644 25.1768 70.824 28.3288L52.4032 42.0214L42.9852 27.7202L40.0224 32.0857L48.8125 45.4336L48.8493 45.4895C49.0355 45.7725 49.2599 46.1137 49.4846 46.3905C49.7498 46.7174 50.1595 47.1434 50.7753 47.3972C51.1892 47.5678 51.6324 47.6454 52.0802 47.6255C52.7462 47.596 53.2781 47.3348 53.64 47.1177C53.9465 46.9338 54.275 46.6893 54.5475 46.4865L54.6013 46.4465L73.2581 32.5785C79.5161 27.9267 81.7855 18.8669 78.4978 11.66L77.9793 10.5234C74.2087 2.25786 64.269 1.15363 58.492 7.75374C55.3381 -0.409112 45.6172 -2.74512 39.2253 3.74216L38.3463 4.63427C32.773 10.2906 31.7831 19.5743 36.0605 26.0696L37.2338 27.8514L40.1874 23.4716L39.8125 22.9023C36.9141 18.5012 37.5849 12.2106 41.3613 8.37785L42.2403 7.48574C46.5364 3.12558 53.2438 5.15655 54.6373 11.2395C55.3687 14.4322 59.1252 15.0895 60.9128 12.3376Z" fill="#B5D4F6"/>
</svg>
