<svg width="34" height="21" viewBox="0 0 34 21" fill="none" xmlns="http://www.w3.org/2000/svg">
<path fillRule="evenodd" clipRule="evenodd" d="M15.125 1.75C11.328 1.75 8.25 4.82804 8.25 8.625C8.25 12.422 11.328 15.5 15.125 15.5C18.922 15.5 22 12.422 22 8.625C22 4.82804 18.922 1.75 15.125 1.75ZM7 8.625C7 4.13769 10.6377 0.5 15.125 0.5C19.6123 0.5 23.25 4.13769 23.25 8.625C23.25 13.1123 19.6123 16.75 15.125 16.75C10.6377 16.75 7 13.1123 7 8.625ZM13.4508 4.58303C13.9816 4.36316 14.5505 4.25 15.125 4.25C15.4702 4.25 15.75 4.52982 15.75 4.875C15.75 5.22018 15.4702 5.5 15.125 5.5C14.7146 5.5 14.3083 5.58083 13.9291 5.73788C13.55 5.89492 13.2055 6.12511 12.9153 6.41529C12.6251 6.70547 12.3949 7.04997 12.2379 7.42912C12.0808 7.80826 12 8.21462 12 8.625C12 8.97018 11.7202 9.25 11.375 9.25C11.0298 9.25 10.75 8.97018 10.75 8.625C10.75 8.05047 10.8632 7.48156 11.083 6.95076C11.3029 6.41996 11.6252 5.93766 12.0314 5.53141C12.4377 5.12515 12.92 4.80289 13.4508 4.58303ZM22.1831 15.6831C22.4271 15.439 22.8229 15.439 23.0669 15.6831L26.8169 19.4331C27.061 19.6771 27.061 20.0729 26.8169 20.3169C26.5729 20.561 26.1771 20.561 25.9331 20.3169L22.1831 16.5669C21.939 16.3229 21.939 15.9271 22.1831 15.6831Z" fill="#5AA1EC"/>
</svg>
