<svg width="57" height="56" viewBox="0 0 57 56" fill="none" xmlns="http://www.w3.org/2000/svg">
<g filter="url(#filter0_d_891_5028)">
<circle cx="26.333" cy="26" r="24" fill="#FDEAB6"/>
</g>
<path fill-rule="evenodd" clip-rule="evenodd" d="M34.9009 17.8027C32.9834 14.9978 29.1346 15.4682 27.7873 18.6721C27.0802 20.3538 24.9711 20.3538 24.2639 18.6721C22.9166 15.4682 19.0678 14.9978 17.1503 17.8027L16.758 18.3766C15.0725 20.8422 15.3159 24.3583 17.3199 26.495L26.0256 35.7768L34.7313 26.495C36.7353 24.3583 36.9787 20.8422 35.2932 18.3766L34.9009 17.8027ZM26.0256 16.3894C28.5327 12.2132 34.052 11.8647 36.9048 16.038L37.2972 16.612C39.7846 20.2507 39.4255 25.4398 36.4679 28.5931L27.6507 37.9939C27.6423 38.0028 27.6339 38.0119 27.6253 38.021C27.4965 38.1585 27.3413 38.3241 27.1921 38.4545C27.0161 38.6084 26.7518 38.8027 26.3919 38.8829C26.15 38.9368 25.9012 38.9368 25.6593 38.8829C25.2995 38.8027 25.0351 38.6084 24.8591 38.4545C24.71 38.3241 24.5548 38.1585 24.426 38.0211C24.4174 38.0119 24.4089 38.0028 24.4006 37.9939L15.5833 28.5931C12.6258 25.4398 12.2666 20.2507 14.7541 16.612L15.1464 16.0381C17.9993 11.8647 23.5185 12.2132 26.0256 16.3894Z" fill="#145CA8"/>
<defs>
<filter id="filter0_d_891_5028" x="0.333008" y="0" width="56" height="56" filterUnits="userSpaceOnUse" color-interpolation-filters="sRGB">
<feFlood flood-opacity="0" result="BackgroundImageFix"/>
<feColorMatrix in="SourceAlpha" type="matrix" values="0 0 0 0 0 0 0 0 0 0 0 0 0 0 0 0 0 0 127 0" result="hardAlpha"/>
<feOffset dx="2" dy="2"/>
<feGaussianBlur stdDeviation="2"/>
<feComposite in2="hardAlpha" operator="out"/>
<feColorMatrix type="matrix" values="0 0 0 0 0 0 0 0 0 0 0 0 0 0 0 0 0 0 0.15 0"/>
<feBlend mode="normal" in2="BackgroundImageFix" result="effect1_dropShadow_891_5028"/>
<feBlend mode="normal" in="SourceGraphic" in2="effect1_dropShadow_891_5028" result="shape"/>
</filter>
</defs>
</svg>
