<svg width="120" height="60" viewBox="0 0 120 60" fill="none" xmlns="http://www.w3.org/2000/svg">
<path d="M118.949 27.664L97.7582 9.02887C97.4035 8.71866 96.9823 8.47259 96.5188 8.30471C96.0553 8.13682 95.5586 8.05041 95.0569 8.05041C94.5552 8.05041 94.0584 8.13682 93.5949 8.30471C93.1315 8.47259 92.7103 8.71866 92.3556 9.02887C92.0008 9.33908 91.7194 9.70735 91.5274 10.1127C91.3354 10.518 91.2366 10.9524 91.2366 11.3911C91.2366 11.8298 91.3354 12.2642 91.5274 12.6695C91.7194 13.0748 92.0008 13.4431 92.3556 13.7533L107.063 26.6142H66.3627L45.9527 5.24934C44.4139 3.61253 42.4806 2.29323 40.291 1.38577C38.1014 0.478309 35.7095 0.00510978 33.2864 0H3.81188C2.80091 0 1.83134 0.351188 1.11647 0.97631C0.401607 1.60143 0 2.44928 0 3.33333C0 4.21739 0.401607 5.06523 1.11647 5.69035C1.83134 6.31548 2.80091 6.66667 3.81188 6.66667H33.2264C34.5307 6.66271 35.82 6.90992 37.0027 7.39076C38.1854 7.87159 39.2326 8.57424 40.0698 9.44882L59.6394 30.0262L40.0698 50.5512C39.2326 51.4258 38.1854 52.1284 37.0027 52.6092C35.82 53.0901 34.5307 53.3373 33.2264 53.3333H3.81188C2.80091 53.3333 1.83134 53.6845 1.11647 54.3097C0.401607 54.9348 0 55.7826 0 56.6667C0 57.5507 0.401607 58.3986 1.11647 59.0237C1.83134 59.6488 2.80091 60 3.81188 60H33.2264C35.6495 59.9949 38.0413 59.5217 40.231 58.6142C42.4206 57.7068 44.3539 56.3875 45.8926 54.7507L66.0626 33.3858H106.823L92.1154 46.2467C91.399 46.8732 90.9965 47.7229 90.9965 48.6089C90.9965 49.4949 91.399 50.3446 92.1154 50.9711C92.8319 51.5976 93.8036 51.9496 94.8168 51.9496C95.83 51.9496 96.8017 51.5976 97.5181 50.9711L118.709 32.4409C119.093 32.1467 119.406 31.7873 119.627 31.3845C119.848 30.9817 119.974 30.5438 119.996 30.0974C120.019 29.6509 119.938 29.2051 119.757 28.7869C119.577 28.3687 119.302 27.9867 118.949 27.664Z" fill="#98C4F2"/>
</svg>
