<svg width="48" height="48" viewBox="0 0 48 48" fill="none" xmlns="http://www.w3.org/2000/svg">
<g clip-path="url(#clip0_857_7)">
<path d="M12.0915 21.6947L18.9144 28.9691C19.1494 29.2197 19.2669 29.345 19.4055 29.3758C19.4679 29.3897 19.532 29.3897 19.5945 29.3758C19.733 29.345 19.8505 29.2197 20.0855 28.9691L26.9084 21.6947C28.8281 19.6479 29.0612 16.2799 27.4467 13.918L27.1431 13.4739C25.2116 10.6485 21.3347 11.1224 19.9775 14.3497C19.7859 14.8056 19.2141 14.8056 19.0224 14.3497C17.6652 11.1224 13.7883 10.6485 11.8569 13.4739L11.5533 13.918C9.93874 16.2799 10.1719 19.6479 12.0915 21.6947Z" fill="#FF4365"/>
<path fillRule="evenodd" clipRule="evenodd" d="M26.3677 14.1567C24.884 11.9862 21.9058 12.3502 20.8632 14.8294C20.316 16.1307 18.684 16.1307 18.1368 14.8294C17.0942 12.3502 14.116 11.9862 12.6322 14.1567L12.3287 14.6008C11.0244 16.5087 11.2127 19.2295 12.7635 20.8829L19.5 28.0652L26.2365 20.8829C27.7873 19.2295 27.9756 16.5087 26.6714 14.6008L26.3677 14.1567ZM19.5 13.063C21.44 9.83145 25.7109 9.56181 27.9184 12.7912L28.222 13.2353C30.1469 16.051 29.8689 20.0664 27.5804 22.5064L20.7575 29.7809C20.751 29.7877 20.7445 29.7947 20.7379 29.8018C20.6382 29.9081 20.518 30.0364 20.4027 30.1372C20.2664 30.2563 20.0619 30.4067 19.7835 30.4687C19.5963 30.5104 19.4037 30.5104 19.2165 30.4687C18.9381 30.4067 18.7335 30.2563 18.5974 30.1372C18.482 30.0364 18.3619 29.9082 18.2622 29.8019C18.2555 29.7947 18.249 29.7877 18.2425 29.7809L11.4197 22.5064C9.13106 20.0664 8.85314 16.051 10.778 13.2353L11.0815 12.7912C13.2891 9.56182 17.56 9.83145 19.5 13.063Z" fill="#FF4365"/>
<path d="M46.5 46.5L37.5 37.5M37.5 19.5C37.5 29.4411 29.4411 37.5 19.5 37.5C9.5589 37.5 1.5 29.4411 1.5 19.5C1.5 9.5589 9.5589 1.5 19.5 1.5C29.4411 1.5 37.5 9.5589 37.5 19.5Z" stroke="#889FB9" stroke-width="3" stroke-linecap="round"/>
</g>
<defs>
<clipPath id="clip0_857_7">
<rect width="48" height="48" fill="white"/>
</clipPath>
</defs>
</svg>
