<svg width="126" height="100" viewBox="0 0 126 100" fill="none" xmlns="http://www.w3.org/2000/svg">
<g clip-path="url(#clip0_1262_8472)">
<path d="M82.6462 0C72.549 0 63.5383 13.4548 57.6483 34.4988C51.7501 13.4548 42.7394 0 32.6422 0C14.8903 0 0.496094 44.7758 0.496094 100H14.7841C14.7841 48.7133 22.7819 7.13994 32.6422 7.13994C42.5025 7.13994 50.5002 45.5192 50.5002 92.8601H64.7882C64.7882 45.5192 72.7859 7.13994 82.6462 7.13994C92.5065 7.13994 100.504 48.7133 100.504 100H114.784C114.792 44.7758 100.398 0 82.6462 0Z" fill="#FFBC0D"/>
<path d="M121.637 92.86C119.693 92.86 118.051 94.3958 118.051 96.4136C118.051 98.4314 119.685 99.9999 121.637 99.9999C123.59 99.9999 125.199 98.4641 125.199 96.4136C125.199 94.3631 123.573 92.86 121.637 92.86ZM121.637 99.4771C119.971 99.4771 118.704 98.1618 118.704 96.4136C118.704 94.6654 119.979 93.3828 121.637 93.3828C123.295 93.3828 124.554 94.7062 124.554 96.4136C124.554 98.121 123.279 99.4771 121.637 99.4771Z" fill="#FFBC0D"/>
<path d="M123.313 95.5313C123.313 94.7307 122.848 94.3386 121.859 94.3386H120.25V98.5131H120.895V96.7159H121.582L122.709 98.5131H123.403L122.219 96.6669C122.831 96.6015 123.305 96.2829 123.305 95.5313H123.313ZM121.582 96.193H120.904V94.8615H121.753C122.194 94.8615 122.668 94.9431 122.668 95.4987C122.668 96.1604 122.145 96.1849 121.582 96.1849V96.193Z" fill="#FFBC0D"/>
</g>
<defs>
<clipPath id="clip0_1262_8472">
<rect width="125.006" height="100" fill="white" transform="translate(0.496094)"/>
</clipPath>
</defs>
</svg>
