<svg width="57" height="56" viewBox="0 0 57 56" fill="none" xmlns="http://www.w3.org/2000/svg">
<g filter="url(#filter0_d_891_5038)">
<circle cx="26.666" cy="26" r="24" fill="#FF4365"/>
</g>
<path fill-rule="evenodd" clip-rule="evenodd" d="M37.3972 15.2684C38.022 15.8933 38.022 16.9063 37.3972 17.5312L18.1972 36.7312C17.5724 37.356 16.5593 37.356 15.9344 36.7312C15.3096 36.1063 15.3096 35.0933 15.9344 34.4684L35.1345 15.2684C35.7593 14.6436 36.7724 14.6436 37.3972 15.2684Z" fill="#FBFDFF"/>
<path fill-rule="evenodd" clip-rule="evenodd" d="M15.9345 15.2684C15.3096 15.8933 15.3096 16.9063 15.9345 17.5312L35.1345 36.7312C35.7593 37.356 36.7724 37.356 37.3972 36.7312C38.022 36.1063 38.022 35.0933 37.3972 34.4684L18.1972 15.2684C17.5724 14.6436 16.5593 14.6436 15.9345 15.2684Z" fill="#FBFDFF"/>
<defs>
<filter id="filter0_d_891_5038" x="0.666016" y="0" width="56" height="56" filterUnits="userSpaceOnUse" color-interpolation-filters="sRGB">
<feFlood flood-opacity="0" result="BackgroundImageFix"/>
<feColorMatrix in="SourceAlpha" type="matrix" values="0 0 0 0 0 0 0 0 0 0 0 0 0 0 0 0 0 0 127 0" result="hardAlpha"/>
<feOffset dx="2" dy="2"/>
<feGaussianBlur stdDeviation="2"/>
<feComposite in2="hardAlpha" operator="out"/>
<feColorMatrix type="matrix" values="0 0 0 0 0 0 0 0 0 0 0 0 0 0 0 0 0 0 0.15 0"/>
<feBlend mode="normal" in2="BackgroundImageFix" result="effect1_dropShadow_891_5038"/>
<feBlend mode="normal" in="SourceGraphic" in2="effect1_dropShadow_891_5038" result="shape"/>
</filter>
</defs>
</svg>
