<svg width="16" height="18" viewBox="0 0 16 18" fill="none" xmlns="http://www.w3.org/2000/svg">
<path fill-rule="evenodd" clip-rule="evenodd" d="M8 1.00631C4.38213 1.00631 1 3.82736 1 8.05049C1 10.3851 2.26993 12.3784 3.79742 13.9275C5.32016 15.4717 7.04259 16.516 7.81628 16.9447C7.93418 17.01 8.06582 17.01 8.18372 16.9447C8.95741 16.516 10.6798 15.4717 12.2026 13.9275C13.7301 12.3784 15 10.3851 15 8.05049C15 3.82178 11.746 1.00631 8 1.00631ZM0 8.05049C0 3.21682 3.88589 0 8 0C12.254 0 16 3.2224 16 8.05049C16 10.7656 14.5258 13.0001 12.9124 14.6363C11.2943 16.2773 9.47918 17.3757 8.66606 17.8262C8.24785 18.0579 7.75215 18.0579 7.33394 17.8262C6.52082 17.3757 4.7057 16.2773 3.08758 14.6363C1.47422 13.0001 0 10.7656 0 8.05049Z" fill="#145CA8"/>
<path d="M1 8.05049C1 3.82736 4.38213 1.00631 8 1.00631C11.746 1.00631 15 3.82178 15 8.05049C15 10.3851 13.7301 12.3784 12.2026 13.9275C10.6798 15.4717 8.95741 16.516 8.18372 16.9447C8.06582 17.01 7.93418 17.01 7.81628 16.9447C7.04259 16.516 5.32016 15.4717 3.79742 13.9275C2.26993 12.3784 1 10.3851 1 8.05049Z" fill="#145CA8"/>
<path fill-rule="evenodd" clip-rule="evenodd" d="M7.30074 6.36471C6.6709 5.25554 5.1013 5.20113 4.39712 6.26408C3.94558 6.94567 4.03488 7.85324 4.61049 8.43248L7.94982 11.7929L11.2892 8.43248C11.8648 7.85324 11.9541 6.94567 11.5025 6.26408C10.7983 5.20113 9.22875 5.25554 8.59891 6.36471L8.45869 6.61165C8.2337 7.00787 7.66595 7.00788 7.44096 6.61165L7.30074 6.36471ZM7.94982 5.54582C6.84834 4.11026 4.6114 4.13785 3.57029 5.70938C2.85599 6.78759 2.99726 8.22328 3.90782 9.13959L7.34297 12.5964C7.3466 12.6001 7.35034 12.6039 7.3542 12.6077C7.4037 12.6577 7.47079 12.7253 7.53778 12.7767C7.62145 12.841 7.76009 12.9247 7.94982 12.9247C8.13956 12.9247 8.2782 12.841 8.36187 12.7767C8.42885 12.7253 8.49595 12.6577 8.54545 12.6077C8.5493 12.6039 8.55305 12.6001 8.55668 12.5964L11.9918 9.13959C12.9024 8.22328 13.0437 6.78759 12.3294 5.70938C11.2882 4.13785 9.05131 4.11026 7.94982 5.54582Z" fill="#F9DB6D"/>
<path d="M4.39712 6.26408C5.1013 5.20113 6.6709 5.25554 7.30074 6.36471L7.44096 6.61165C7.66595 7.00788 8.2337 7.00787 8.45869 6.61165L8.59891 6.36471C9.22875 5.25554 10.7983 5.20113 11.5025 6.26408C11.9541 6.94567 11.8648 7.85324 11.2892 8.43248L7.94982 11.7929L4.61049 8.43248C4.03488 7.85324 3.94558 6.94567 4.39712 6.26408Z" fill="#F9DB6D"/>
</svg>
