<svg width="34" height="24" viewBox="0 0 34 24" fill="none" xmlns="http://www.w3.org/2000/svg">
<path fillRule="evenodd" clipRule="evenodd" d="M14.6473 0.0010679C14.0726 0.0316476 13.5594 0.195547 13.0528 0.510306C12.2729 0.994843 11.6259 1.83983 11.3775 2.69838C11.2845 3.0196 11.2463 3.28429 11.2456 3.61158C11.2451 3.84165 11.2613 4.01769 11.3068 4.27744C11.3978 4.79688 11.6017 5.35237 11.8792 5.83678C11.907 5.88533 11.9298 5.92714 11.9298 5.9297C11.9298 5.93227 11.7054 6.15832 11.4312 6.43203L10.9327 6.92971L10.8216 6.86793C10.1988 6.52134 9.58465 6.3267 8.89891 6.25852C8.79226 6.24792 8.4456 6.24787 8.34362 6.25845C7.90503 6.30394 7.5357 6.40853 7.14926 6.5967C6.23603 7.04138 5.51197 7.82266 5.18839 8.71255C4.85619 9.62614 4.96452 10.5659 5.50398 11.4501C5.59371 11.5971 5.74572 11.8129 5.84049 11.9277L5.87941 11.9749L5.86615 11.9881L5.85289 12.0013L5.86609 12.0145L5.8793 12.0277L5.82211 12.0997C5.55317 12.4382 5.34624 12.7917 5.20787 13.1491C5.12214 13.3706 5.05379 13.6383 5.02413 13.8688C4.9388 14.5322 5.08227 15.2133 5.43719 15.8297C5.60788 16.1262 5.81755 16.3938 6.07977 16.6499C6.39988 16.9626 6.74031 17.2044 7.13065 17.3964C7.53017 17.5929 7.89562 17.6977 8.34362 17.7442C8.44581 17.7548 8.79824 17.7548 8.90512 17.7442C9.39371 17.6955 9.82902 17.5858 10.287 17.3959C10.4166 17.3422 10.7205 17.1933 10.8432 17.1235L10.9324 17.0727L11.4311 17.5705C11.7054 17.8443 11.9298 18.0698 11.9298 18.0716C11.9298 18.0734 11.9059 18.1166 11.8767 18.1676C11.8111 18.2824 11.6768 18.5521 11.6253 18.6723C11.4172 19.1587 11.2992 19.6215 11.2528 20.134C11.2428 20.2436 11.2427 20.5291 11.2526 20.6388C11.3076 21.2505 11.5128 21.8107 11.8787 22.3484C12.455 23.195 13.28 23.7672 14.182 23.9457C14.495 24.0077 14.8664 24.0171 15.1841 23.9713C15.73 23.8926 16.2766 23.6543 16.794 23.2695C16.8469 23.2301 16.9122 23.1802 16.9391 23.1586C16.9835 23.1228 16.989 23.12 16.9984 23.1285C17.0075 23.1367 17.0099 23.1367 17.0178 23.1288C17.0257 23.121 17.0323 23.1242 17.0702 23.1547C17.6284 23.6034 18.2225 23.8806 18.8141 23.9684C19.0888 24.0092 19.4077 24.0103 19.676 23.9714C20.5667 23.8423 21.4074 23.3195 22.0139 22.5175C22.2349 22.2252 22.4037 21.9287 22.5314 21.6082C22.6358 21.3463 22.7078 21.073 22.7435 20.803C22.7634 20.6527 22.7657 20.6096 22.7658 20.388C22.7658 20.1527 22.763 20.1065 22.7372 19.9141C22.6582 19.3243 22.4514 18.7209 22.1415 18.1758C22.1112 18.1225 22.0864 18.0765 22.0864 18.0736C22.0864 18.0707 22.3097 17.8454 22.5827 17.5728C23.0208 17.1356 23.0804 17.0782 23.0904 17.0845C23.1319 17.1103 23.2805 17.1907 23.38 17.2411C23.8846 17.4965 24.4103 17.6595 24.9473 17.7271C25.1191 17.7488 25.1793 17.7523 25.3778 17.7523C25.6237 17.7523 25.7563 17.7406 25.9766 17.6995C26.5525 17.5919 27.1213 17.3206 27.63 16.9106C28.3625 16.3205 28.8478 15.5112 28.9699 14.6761C29.01 14.4018 29.01 14.0848 28.9699 13.8131C28.8846 13.2361 28.6229 12.6634 28.1956 12.1188L28.1302 12.0354L28.1465 12.0184L28.1628 12.0013L28.1465 11.9843L28.1302 11.9673L28.1956 11.8839C28.6214 11.3411 28.8849 10.7646 28.9699 10.1896C29.01 9.9179 29.01 9.60086 28.9699 9.32657C28.8307 8.37519 28.2224 7.46655 27.3229 6.86665C26.8019 6.51913 26.2669 6.32153 25.6872 6.26249C24.9305 6.18541 23.9773 6.41622 23.1768 6.87034C23.1265 6.8989 23.0832 6.92227 23.0807 6.92227C23.0781 6.92227 22.8524 6.69907 22.5792 6.42627L22.0823 5.93026L22.1341 5.83939C22.4474 5.28992 22.6499 4.70532 22.7341 4.1071C22.7628 3.90331 22.7658 3.85704 22.7658 3.61158C22.7657 3.37234 22.7635 3.33687 22.7371 3.15323C22.6413 2.48852 22.3377 1.8512 21.8388 1.26716C21.7619 1.17711 21.5517 0.963607 21.466 0.888337C20.9475 0.433495 20.3627 0.145313 19.7473 0.0414588C19.467 -0.0058508 19.1757 -0.0122739 18.8911 0.0225858C18.3853 0.0845628 17.8844 0.279983 17.4021 0.603612C17.3109 0.664772 17.1348 0.794059 17.061 0.854004C17.0336 0.876259 17.0251 0.880291 17.0165 0.874977C17.009 0.870282 17.0036 0.870393 16.9976 0.875373C16.991 0.880849 16.9738 0.870282 16.918 0.826336C16.3001 0.340176 15.6857 0.0751789 15.0321 0.0129541C14.9392 0.00410295 14.7184 -0.00271662 14.6473 0.0010679ZM14.9417 0.394175C15.4328 0.431135 15.8961 0.598564 16.3721 0.911193C16.5032 0.997259 16.6468 1.10556 16.8129 1.24363C16.9457 1.35405 17.0342 1.4413 18.7076 3.11213L20.4629 4.86479L20.4112 4.95049C20.3489 5.05375 20.2674 5.17629 20.192 5.28016C20.1008 5.40583 19.9015 5.65064 19.7862 5.77875L19.7645 5.8028L18.3892 4.42984C17.3173 3.35969 17.011 3.05726 17.0007 3.0586C16.9903 3.05995 16.9347 3.00403 16.744 2.80017C16.3932 2.42513 16.2396 2.27542 16.003 2.07825C15.9108 2.00145 15.8844 1.98174 15.7579 1.8954C15.491 1.71328 15.2462 1.60888 14.9792 1.56343C14.8714 1.54506 14.656 1.54355 14.5493 1.56041C14.3254 1.5958 14.1142 1.6739 13.9075 1.79779C13.479 2.05453 13.0836 2.53088 12.9082 3.00148C12.8588 3.13397 12.8238 3.27283 12.8037 3.41647C12.793 3.49252 12.7928 3.73379 12.8034 3.81908C12.8436 4.14501 12.9313 4.46286 13.0587 4.74478L13.0782 4.78783L12.6474 5.21789L12.2166 5.64796L12.1783 5.57745C11.9928 5.23606 11.8479 4.87295 11.7582 4.5252C11.6399 4.06627 11.6054 3.64815 11.6543 3.26472C11.729 2.67843 11.9863 2.10861 12.4095 1.59238C12.982 0.894098 13.7699 0.455991 14.5635 0.394627C14.6637 0.386885 14.8419 0.386674 14.9417 0.394175ZM19.4374 0.393989C19.9773 0.435204 20.5068 0.64082 20.9789 0.992557C21.4885 1.37216 21.9219 1.9283 22.1577 2.50502C22.2689 2.77699 22.3347 3.03499 22.3696 3.33595C22.384 3.461 22.384 3.76012 22.3695 3.89651C22.2816 4.72274 21.9647 5.49377 21.4051 6.24239C21.0377 6.73407 20.6285 7.17375 19.7815 7.987C19.7371 8.02959 19.6659 8.0981 19.6232 8.13923C19.5806 8.18035 19.4731 8.28378 19.3844 8.36906C19.2957 8.45434 19.0541 8.68685 18.8477 8.88575C18.3923 9.32445 18.1707 9.53783 18.0598 9.64452C18.0137 9.68881 17.9383 9.76134 17.8922 9.8057C17.689 10.0014 17.6442 10.0444 17.4889 10.1929C17.3985 10.2794 17.2624 10.4098 17.1864 10.4828C17.0304 10.6326 17.0098 10.6514 17.0039 10.6494C17.0015 10.6486 16.968 10.6173 16.9293 10.5798C16.8907 10.5423 16.7949 10.4504 16.7165 10.3754C16.3819 10.0555 15.9731 9.66318 15.8323 9.52694C15.7897 9.48566 15.6347 9.33641 15.488 9.19527C15.3413 9.05414 15.1389 8.85926 15.0382 8.76221C14.6527 8.39058 14.4478 8.19337 14.1727 7.92908C13.9408 7.70638 13.425 7.1935 13.425 7.18562C13.425 7.18217 13.6083 6.99639 13.8323 6.77278L14.2395 6.3662L14.4822 6.60914C14.6157 6.74276 14.7737 6.89906 14.8334 6.95647C14.8932 7.01389 14.9755 7.09316 15.0165 7.13264C15.0574 7.17212 15.1244 7.23643 15.1654 7.27555C15.2063 7.31468 15.3166 7.42064 15.4104 7.51101C15.5043 7.60139 15.6676 7.75867 15.7734 7.86053C15.9804 8.05984 16.0998 8.17513 16.2418 8.31273C16.2913 8.36066 16.4058 8.47088 16.4961 8.55765C16.5865 8.64443 16.7381 8.79032 16.8328 8.88186L17.0052 9.04829L17.0377 9.01847C17.0555 9.00207 17.1455 8.91607 17.2376 8.82735C17.3298 8.73864 17.4415 8.63113 17.4858 8.58846C17.5302 8.54577 17.6447 8.43548 17.7402 8.34334C18.0589 8.03605 18.6566 7.46048 18.8136 7.30971C19.2632 6.87784 19.4154 6.72936 19.5909 6.55155C20.271 5.8624 20.6388 5.3881 20.903 4.85967C21.1162 4.43296 21.2471 3.8685 21.2181 3.50009C21.2097 3.3939 21.1941 3.29579 21.1709 3.20449C21.0652 2.78824 20.7874 2.35266 20.4236 2.03268C20.0179 1.67583 19.5411 1.50367 19.1008 1.55508C18.8068 1.58943 18.5034 1.71611 18.2117 1.92637L18.1311 1.98452L17.7168 1.57164L17.3025 1.15877L17.3197 1.1446C17.3721 1.10146 17.535 0.982182 17.6129 0.929843C18.0866 0.611534 18.5702 0.43321 19.0648 0.394448C19.1607 0.386928 19.3421 0.386705 19.4374 0.393989ZM14.9064 1.94525C15.0569 1.968 15.2091 2.02218 15.367 2.10919C15.4335 2.14581 15.6028 2.25632 15.6028 2.26309C15.6028 2.26952 13.3764 4.49114 13.3733 4.48777C13.3667 4.48048 13.312 4.32748 13.2892 4.25222C13.2209 4.02708 13.183 3.79758 13.1832 3.61028C13.1835 3.33106 13.2748 3.05481 13.4599 2.77338C13.7552 2.32428 14.1672 2.02208 14.5841 1.94877C14.6679 1.93404 14.8212 1.93237 14.9064 1.94525ZM19.4108 1.94525C19.7948 2.00331 20.1826 2.26519 20.4821 2.66864C20.6324 2.87114 20.7454 3.10112 20.7949 3.30498C20.8254 3.43068 20.8299 3.47079 20.8297 3.61778C20.8295 3.75872 20.8208 3.84066 20.7892 4.00053C20.7634 4.13081 20.6936 4.3668 20.6534 4.45984L20.6402 4.4905L19.5268 3.379C18.9144 2.76768 18.4134 2.26543 18.4134 2.26291C18.4134 2.25637 18.4948 2.20044 18.5764 2.15093C18.755 2.0426 18.9358 1.97206 19.1021 1.94584C19.1751 1.93433 19.3365 1.93402 19.4108 1.94525ZM16.0358 2.62778C16.1391 2.72679 16.2441 2.83503 16.4376 3.0419C16.4821 3.08951 16.5624 3.17527 16.616 3.23248C16.6695 3.2897 16.7134 3.33848 16.7134 3.34088C16.7134 3.34329 15.6932 4.36374 14.4462 5.60857L12.1791 7.87189L12.1549 7.85079C12.1416 7.83918 12.0834 7.78821 12.0256 7.7375C11.8245 7.56112 11.6029 7.38394 11.4031 7.23969C11.3404 7.19441 11.2846 7.15475 11.2791 7.15157C11.2709 7.14687 11.7048 6.71067 13.5891 4.82932C15.1785 3.24237 15.9118 2.51431 15.9174 2.51744C15.9219 2.51996 15.9752 2.56961 16.0358 2.62778ZM17.0204 3.63954L17.0333 3.62745L18.2672 4.85931L19.5011 6.09116L19.238 6.35381C19.0933 6.49827 18.8604 6.72615 18.7205 6.86024C18.4782 7.0924 18.4209 7.14762 18.2055 7.35572C18.1544 7.40519 18.0734 7.4833 18.0256 7.52929C17.9778 7.57529 17.8634 7.68552 17.7712 7.77425C17.4338 8.09925 17.0509 8.46736 17.0284 8.48849L17.0052 8.5102L16.9291 8.43579C16.8872 8.39487 16.7245 8.23778 16.5676 8.08671C16.4106 7.93564 16.2431 7.77419 16.1953 7.72794C16.1475 7.68169 16.0331 7.57145 15.9409 7.48297C15.8488 7.3945 15.7329 7.28294 15.6834 7.23509C15.541 7.09728 15.4445 7.00451 15.2615 6.82935C15.1677 6.73951 14.9612 6.53684 14.8026 6.37898L14.5142 6.09195L15.7487 4.85959C16.9766 3.63374 16.9832 3.6273 16.9953 3.63943C17.0074 3.65152 17.0076 3.65152 17.0204 3.63954ZM26.457 10.9398C26.3949 11.0092 26.2006 11.203 26.085 11.3108C26.0303 11.3619 25.9465 11.4401 25.8988 11.4848C25.8512 11.5294 25.78 11.5956 25.7408 11.6318L25.6695 11.6977L23.4037 9.43584L21.138 7.17397L21.1577 7.15101C21.1686 7.13838 21.2179 7.08217 21.2674 7.02612C21.4511 6.81805 21.6712 6.54248 21.8041 6.35436L21.8661 6.26652L24.1831 8.57915L26.5 10.8918L26.457 10.9398ZM8.8772 6.64659C9.67171 6.7227 10.4263 7.01849 11.1547 7.53931C11.4604 7.75787 11.7213 7.97632 12.1194 8.34688C12.2425 8.46144 12.8254 9.04896 13.1212 9.3565C13.2932 9.53536 13.4732 9.7221 13.5212 9.7715C13.5691 9.8209 13.6474 9.90173 13.695 9.95113C13.7426 10.0005 13.818 10.0786 13.8626 10.1246C13.9072 10.1705 13.9843 10.25 14.0338 10.3011C14.1159 10.3857 14.5531 10.8386 14.7276 11.0198C14.767 11.0608 14.8384 11.1346 14.8862 11.1839C15.1543 11.4607 15.6679 11.9978 15.6679 12.0015C15.6679 12.0053 15.147 12.5502 14.8924 12.8127C14.8412 12.8655 14.7698 12.9394 14.7337 12.9769C14.6976 13.0143 14.5079 13.2109 14.3121 13.4136C14.1164 13.6163 13.885 13.856 13.7978 13.9462C13.7107 14.0365 13.5974 14.1536 13.5461 14.2064C13.3772 14.38 13.2936 14.4666 13.0466 14.7236C12.9123 14.8633 12.6648 15.1155 12.4965 15.2841L12.1904 15.5907L11.7802 15.1813L11.3701 14.7719L11.6334 14.5093C11.7782 14.3648 12.0107 14.1282 12.1501 13.9834C12.2895 13.8386 12.4387 13.6839 12.4816 13.6396C12.5244 13.5953 12.632 13.4838 12.7207 13.3919C12.8093 13.2999 12.924 13.1814 12.9755 13.1286C13.027 13.0758 13.1889 12.9086 13.3352 12.757C13.8569 12.2165 13.925 12.146 13.9952 12.0742L14.0663 12.0016L13.9923 11.9257C13.9516 11.8839 13.8819 11.8121 13.8373 11.7661C13.7928 11.72 13.7186 11.6433 13.6725 11.5956C13.6264 11.5479 13.469 11.3849 13.3227 11.2333C13.1765 11.0817 13.0146 10.9144 12.9631 10.8616C12.9116 10.8088 12.7969 10.6905 12.7083 10.5986C12.6196 10.5067 12.5121 10.3952 12.4693 10.3508C12.4264 10.3064 12.3134 10.1893 12.2181 10.0905C11.3777 9.21922 10.9937 8.86117 10.5384 8.52408C9.96424 8.09909 9.39041 7.86194 8.79123 7.80204C8.63977 7.78691 8.44079 7.79691 8.29088 7.82722C7.90419 7.90537 7.49635 8.13286 7.16559 8.45489C6.83729 8.77452 6.62879 9.15085 6.56486 9.53923C6.54927 9.63391 6.54934 9.88296 6.56498 9.97281C6.5934 10.136 6.64032 10.2829 6.71143 10.4312C6.77629 10.5664 6.83874 10.6691 6.97552 10.8652C6.98469 10.8783 6.16094 11.7004 6.14872 11.6903C6.13029 11.675 5.98607 11.4777 5.91433 11.3695C5.6099 10.9108 5.44088 10.4528 5.39654 9.96661C5.38737 9.86613 5.38897 9.63259 5.39959 9.52199C5.48499 8.63208 6.02579 7.78022 6.87007 7.20576C7.31663 6.90192 7.79684 6.71506 8.28228 6.65627C8.4209 6.63948 8.41779 6.63965 8.61041 6.63845C8.72219 6.63775 8.81419 6.64056 8.8772 6.64659ZM25.6346 6.64705C26.0336 6.6846 26.4435 6.81099 26.8086 7.00907C27.5555 7.41424 28.1411 8.05625 28.4243 8.78046C28.5915 9.20796 28.6476 9.64697 28.5912 10.0874C28.5122 10.7052 28.2078 11.3045 27.6613 11.9177C27.6163 11.9682 27.5909 12.0016 27.593 12.0072C27.5954 12.0133 27.026 12.5858 25.8729 13.7369C24.925 14.6833 24.1471 15.4576 24.1444 15.4576C24.1361 15.4576 23.9563 15.3479 23.8672 15.2885C23.6832 15.1657 23.4779 15.0063 23.2633 14.8197L23.203 14.7672L24.588 13.3845L25.973 12.0018L25.9591 11.987L25.9452 11.9723L26.1206 11.809C26.2171 11.7192 26.317 11.6262 26.3426 11.6023C26.4565 11.4962 26.7502 11.1973 26.8208 11.1156C26.9717 10.9412 27.0076 10.8947 27.1177 10.7316C27.2982 10.4641 27.4006 10.2126 27.4417 9.93564C27.4522 9.86457 27.4522 9.63696 27.4417 9.5702C27.4067 9.34832 27.3425 9.1618 27.2351 8.9694C26.9676 8.49037 26.4666 8.0718 25.9446 7.89116C25.6188 7.77843 25.3155 7.76612 24.9038 7.84896C24.7219 7.88557 24.5019 7.95334 24.3235 8.0277L24.2246 8.06892L23.7947 7.63977C23.5583 7.40373 23.3668 7.20864 23.3693 7.20621C23.3769 7.19876 23.5796 7.09532 23.6778 7.04871C24.1501 6.82475 24.614 6.69704 25.1483 6.64393C25.2394 6.63487 25.5246 6.6367 25.6346 6.64705ZM13.3921 7.70756C13.6433 7.95821 13.7105 8.02392 14.002 8.30394C14.2075 8.50128 14.5111 8.7934 14.6257 8.90401C14.6736 8.95018 14.7881 9.06036 14.8801 9.14883C14.9722 9.23731 15.0894 9.35041 15.1406 9.40015C15.2424 9.49915 15.6865 9.92628 15.9223 10.1521C16.0042 10.2305 16.1061 10.3282 16.1488 10.3693C16.3237 10.5374 16.3826 10.5939 16.5366 10.741C16.6253 10.8257 16.7615 10.9562 16.8392 11.0309C16.9169 11.1056 16.9868 11.1716 16.9944 11.1777C17.0082 11.1885 17.0089 11.1882 17.0517 11.1478C17.1003 11.102 17.5004 10.7199 17.6006 10.6237C17.78 10.4512 17.8454 10.3886 17.9853 10.2546C18.1454 10.1013 18.1838 10.0643 18.4723 9.78654C18.5713 9.69125 18.7723 9.49774 18.919 9.35653C19.0658 9.21532 19.2249 9.06208 19.2726 9.016C19.3552 8.93624 19.4495 8.84527 19.6355 8.66597C19.6816 8.62163 19.7583 8.54759 19.8062 8.50145C19.854 8.4553 19.9643 8.34949 20.0514 8.26631C20.286 8.04197 20.4089 7.92166 20.6519 7.67831L20.871 7.45879L21.2076 7.79476L21.5442 8.13073L21.2426 8.43237C21.0767 8.59827 20.8657 8.8121 20.7738 8.90755C20.6819 9.00299 20.541 9.14928 20.4608 9.23264C20.3807 9.316 20.2746 9.42603 20.2251 9.47715C20.0771 9.63 19.9479 9.76335 19.8618 9.85202C19.8171 9.89801 19.6985 10.0207 19.5983 10.1246C19.498 10.2285 19.3782 10.3526 19.332 10.4003C19.2857 10.4481 19.1809 10.5568 19.0991 10.6419C19.0173 10.727 18.9125 10.8356 18.8661 10.8833C18.8198 10.931 18.7122 11.0426 18.6271 11.1312C18.542 11.2199 18.4081 11.3592 18.3296 11.4409C18.2511 11.5226 18.1562 11.6215 18.1187 11.6608C18.0811 11.7 17.9932 11.7915 17.9232 11.8642C17.8533 11.9368 17.796 11.9985 17.796 12.0014C17.796 12.0042 17.8198 12.0311 17.8488 12.0613C17.9267 12.1422 18.1334 12.3575 18.3916 12.6269C18.6143 12.8593 18.6612 12.9081 18.8478 13.1008C18.8973 13.1519 19.0048 13.2633 19.0866 13.3484C19.1685 13.4335 19.2733 13.5422 19.3195 13.5899C19.3658 13.6377 19.4856 13.7618 19.5859 13.8657C19.6861 13.9696 19.8047 14.0923 19.8494 14.1383C20.0621 14.3574 20.1347 14.4324 20.2872 14.5904C20.5121 14.8235 20.5696 14.8831 20.7586 15.0797C20.8487 15.1734 21.0623 15.39 21.2332 15.5611L21.544 15.8722L21.2075 16.2081L20.871 16.5439L20.6426 16.3149C20.4049 16.0764 20.2838 15.9585 19.6791 15.3771C19.4795 15.1852 19.2784 14.9917 19.2324 14.9471C19.1863 14.9025 19.0732 14.7936 18.9811 14.7051C18.889 14.6166 18.7703 14.5023 18.7174 14.4512C18.4567 14.1994 18.1109 13.8668 17.8736 13.6396C17.8344 13.6021 17.7352 13.5071 17.6533 13.4285C17.2033 12.9968 17.0088 12.8125 17.0048 12.8141C17.0023 12.8151 16.9379 12.8759 16.8615 12.9493C16.7851 13.0227 16.6501 13.1521 16.5614 13.2368C16.3796 13.4105 16.2936 13.493 16.1767 13.6055C16.1323 13.6483 16.0276 13.7487 15.944 13.8287C15.8604 13.9087 15.7557 14.0091 15.7114 14.052C15.667 14.0948 15.5065 14.2493 15.3546 14.3953C15.2028 14.5413 15.0436 14.6945 15.001 14.7358C14.717 15.0102 14.5105 15.2091 14.1199 15.5843C13.8759 15.8187 13.5565 16.1302 13.4101 16.2765L13.1439 16.5426L12.8043 16.2037L12.4647 15.8647L12.6262 15.706C12.7864 15.5485 13.0618 15.2681 13.3475 14.9714C13.4294 14.8864 13.5342 14.7777 13.5805 14.7299C13.6267 14.6822 13.7452 14.5594 13.8437 14.4572C14.0464 14.2471 14.1437 14.1465 14.2781 14.0082C14.3295 13.9554 14.4481 13.8327 14.5418 13.7357C14.6354 13.6386 14.7458 13.5243 14.7871 13.4817C14.8284 13.4391 14.9721 13.29 15.1065 13.1503C15.2408 13.0106 15.383 12.8629 15.4225 12.822C15.4619 12.7811 15.5542 12.6849 15.6275 12.6083C15.7009 12.5317 15.7957 12.4327 15.8384 12.3885C15.881 12.3442 15.944 12.2787 15.9783 12.2429C16.0126 12.2071 16.0776 12.1399 16.1227 12.0935C16.1677 12.0471 16.2046 12.0061 16.2046 12.0024C16.2046 11.9987 16.1008 11.8875 15.9739 11.7554C15.847 11.6232 15.6843 11.4538 15.6125 11.3789C15.5406 11.304 15.4495 11.2092 15.4101 11.1683C15.3706 11.1274 15.2284 10.9796 15.0941 10.84C14.9597 10.7003 14.816 10.5512 14.7747 10.5086C14.678 10.4088 14.4085 10.1301 14.1728 9.88609C14.0708 9.78048 13.9496 9.65505 13.9033 9.60736C13.6196 9.31471 13.5488 9.24141 13.3289 9.0126C13.0583 8.73115 12.7517 8.41922 12.6081 8.27949L12.4642 8.13939L12.8035 7.80027C12.99 7.61375 13.1432 7.46115 13.1439 7.46115C13.1446 7.46115 13.2563 7.57203 13.3921 7.70756ZM8.72433 8.18593C8.90601 8.20095 9.1124 8.24205 9.28669 8.2979C9.37651 8.32669 9.48523 8.36669 9.48523 8.37096C9.48523 8.37305 8.98454 8.87461 8.37259 9.48552L7.25995 10.5963L7.20373 10.5106C7.05875 10.2897 6.98469 10.116 6.95068 9.91706C6.89014 9.56289 7.03778 9.16123 7.3552 8.81658C7.53494 8.62141 7.75832 8.45322 7.98686 8.34098C8.24448 8.21445 8.47731 8.1655 8.72433 8.18593ZM25.479 8.18582C25.5719 8.19418 25.6533 8.20906 25.7366 8.23292C26.2065 8.36755 26.6898 8.76202 26.9158 9.19546C27.0886 9.52683 27.1092 9.84535 26.9789 10.1741C26.9432 10.2641 26.8707 10.4005 26.8076 10.4964C26.7763 10.544 26.7489 10.5829 26.7467 10.5829C26.7446 10.5829 26.2433 10.0842 25.6327 9.4747L24.5227 8.3665L24.547 8.35621C24.6594 8.30861 24.9126 8.23894 25.0645 8.21381C25.2537 8.18251 25.3614 8.17524 25.479 8.18582ZM22.231 8.81638L22.6392 9.22393L22.3512 9.51165C22.1928 9.6699 21.913 9.95546 21.7293 10.1462C21.4309 10.4562 21.3253 10.5656 20.9945 10.908C20.945 10.9591 20.8639 11.0428 20.8142 11.0939C20.6525 11.2603 20.2856 11.6402 19.9986 11.9383C19.9679 11.9702 19.9428 11.9987 19.9428 12.0015C19.9428 12.0067 20.0241 12.0921 20.3612 12.441C20.6368 12.7263 20.7032 12.795 20.802 12.8964C20.8517 12.9475 20.9649 13.0645 21.0536 13.1565C21.1422 13.2485 21.2526 13.3628 21.299 13.4105C21.3454 13.4582 21.5281 13.6477 21.705 13.8317C22.0711 14.2123 22.6154 14.7578 22.772 14.9011C23.2993 15.3835 23.6751 15.6592 24.0873 15.8662C24.4323 16.0394 24.7497 16.1392 25.1235 16.1919C25.2184 16.2053 25.4616 16.2106 25.5498 16.2013C26.0805 16.1448 26.6555 15.8057 27.0422 15.3213C27.2531 15.0571 27.3914 14.754 27.4385 14.4529C27.4522 14.3655 27.454 14.1497 27.4417 14.067C27.3994 13.7816 27.2966 13.5335 27.1033 13.2506C27.0688 13.2001 27.0372 13.154 27.033 13.1482C27.0264 13.1389 27.0761 13.087 27.4398 12.724L27.8542 12.3103L27.9361 12.4194C28.2333 12.815 28.4279 13.2011 28.5294 13.5963C28.6283 13.9817 28.6395 14.3636 28.5631 14.7474C28.4495 15.3181 28.1553 15.8571 27.708 16.3141C27.1587 16.8754 26.4638 17.2438 25.7718 17.3407C25.5823 17.3672 25.3043 17.3736 25.1173 17.3558C24.3928 17.287 23.6853 17.0255 23.013 16.5781C22.5053 16.2402 21.9623 15.7633 21.2576 15.0363C21.1525 14.9279 21.0838 14.8568 20.6594 14.417C20.5624 14.3165 20.4062 14.1548 20.3123 14.0577C20.2183 13.9606 20.1051 13.8436 20.0606 13.7976C20.0161 13.7516 19.9028 13.6345 19.8089 13.5374C19.7149 13.4404 19.5224 13.2411 19.3812 13.0946C19.2399 12.9481 19.0625 12.7641 18.9869 12.6858C18.9113 12.6074 18.8386 12.5316 18.8253 12.5173C18.812 12.503 18.6965 12.3824 18.5685 12.2492C18.4405 12.1161 18.3358 12.0046 18.3358 12.0014C18.3358 11.9966 18.5801 11.7397 18.9097 11.3978C18.9558 11.35 19.0258 11.2774 19.0653 11.2365C19.1047 11.1955 19.2525 11.0422 19.3937 10.8957C19.5349 10.7492 19.7259 10.5513 19.8182 10.4559C19.9105 10.3605 20.0236 10.2435 20.0697 10.1958C20.1157 10.1481 20.1982 10.0631 20.2529 10.0069C20.3077 9.95066 20.464 9.789 20.6002 9.64762C20.9562 9.27815 21.1495 9.078 21.2732 8.9508C21.4073 8.81279 21.8143 8.40882 21.8192 8.40882C21.8211 8.40882 22.0064 8.59222 22.231 8.81638ZM9.9563 8.60173C10.1926 8.74326 10.4564 8.93904 10.7312 9.17688L10.8063 9.24192L9.42481 10.6213C8.09659 11.9475 8.04373 12.0012 8.05389 12.0124C8.06398 12.0235 8.06326 12.0252 8.03807 12.0485C7.42594 12.6152 7.2844 12.7573 7.06609 13.0243C6.82256 13.322 6.65461 13.6335 6.59106 13.9053C6.55826 14.0456 6.55408 14.0837 6.55385 14.2436C6.55369 14.3617 6.55613 14.4104 6.5649 14.4634C6.64534 14.9505 6.94682 15.4086 7.42478 15.7699C7.74582 16.0127 8.11223 16.1662 8.45446 16.2014C8.55523 16.2118 8.78824 16.2053 8.89824 16.189C9.17894 16.1474 9.44146 16.0753 9.68377 15.973L9.78614 15.9298L10.2158 16.358L10.6454 16.7861L10.6315 16.7969C10.6045 16.8178 10.275 16.9794 10.1646 17.0259C9.73352 17.2078 9.31064 17.3167 8.8834 17.3559C8.76471 17.3668 8.49907 17.3684 8.39325 17.3589C7.87669 17.3124 7.38908 17.138 6.92633 16.8345C6.30477 16.4267 5.82765 15.8612 5.58416 15.2437C5.49441 15.0161 5.4415 14.8132 5.40823 14.5689C5.39206 14.4501 5.38557 14.1741 5.39598 14.0484C5.44591 13.4464 5.69653 12.8733 6.16289 12.2945C6.36614 12.0423 6.3365 12.0726 8.13265 10.2779C9.083 9.32825 9.86315 8.55129 9.86632 8.55129C9.86948 8.55129 9.90998 8.57399 9.9563 8.60173ZM24.1523 10.7345L25.3836 11.9638L25.3656 11.9826L25.3476 12.0013L25.3656 12.0201L25.3836 12.0389L24.1496 13.2708L22.9156 14.5028L22.7736 14.3656C22.6532 14.2493 22.3019 13.8916 22.0275 13.6057C21.9865 13.563 21.9139 13.4877 21.866 13.4383C21.7427 13.3111 21.6498 13.2149 21.4381 12.9955C21.3362 12.8899 21.2136 12.763 21.1656 12.7136C20.9648 12.5068 20.8962 12.436 20.7458 12.2801C20.5088 12.0345 20.4826 12.0067 20.4826 12.0013C20.4826 11.9961 20.5003 11.9775 20.7557 11.7133C20.8414 11.6247 21.0744 11.3836 21.2735 11.1775C21.6504 10.7873 21.7332 10.7017 21.8785 10.5519C21.9265 10.5025 22.0326 10.3924 22.1144 10.3073C22.4647 9.94237 22.9002 9.50601 22.9147 9.50541C22.9181 9.50528 23.475 10.0584 24.1523 10.7345ZM11.3771 9.78764C11.5292 9.93959 11.6942 10.1062 11.7436 10.1578C11.892 10.3125 12.4914 10.9332 12.9379 11.3943C13.0657 11.5263 13.1735 11.6378 13.2671 11.735C13.3147 11.7844 13.3926 11.8645 13.4403 11.913L13.5268 12.0013L13.4465 12.0834C13.357 12.1748 13.2746 12.26 13.0374 12.5061C12.9488 12.5981 12.837 12.7138 12.789 12.7632C12.5929 12.9649 12.498 13.0631 12.0042 13.5747C11.9172 13.6648 11.8055 13.7808 11.756 13.8324C11.6129 13.9817 11.1016 14.4913 11.095 14.4913C11.0918 14.4913 10.535 13.9381 9.85774 13.2621L8.62641 12.0328L8.6412 12.0171L8.656 12.0013L8.6412 11.9856L8.62641 11.9699L9.85774 10.7406C10.535 10.0645 11.0916 9.51135 11.0948 9.51135C11.0979 9.51135 11.225 9.63568 11.3771 9.78764ZM12.8728 16.8285C12.8728 16.8313 12.8315 16.8801 12.781 16.9369C12.571 17.1731 12.3517 17.4467 12.1932 17.6704C12.1697 17.7036 12.1489 17.7308 12.1471 17.7308C12.1453 17.7308 11.1012 16.6899 9.82693 15.4178L7.51005 13.1048L7.52652 13.0832C7.56382 13.0344 7.86011 12.7434 8.09186 12.528L8.33955 12.2977L10.6062 14.5605C11.8529 15.8051 12.8728 16.8257 12.8728 16.8285ZM17.0819 13.4185C17.1198 13.4553 17.1843 13.5175 17.2252 13.5567C17.6039 13.9191 17.8795 14.1833 18.0349 14.333C18.0776 14.3741 18.1893 14.4815 18.2831 14.5717C18.3769 14.6619 18.4942 14.7748 18.5437 14.8227C18.5932 14.8705 18.6727 14.9473 18.7205 14.9934C18.7683 15.0394 18.8506 15.1188 18.9035 15.1698C18.9564 15.2208 19.0793 15.3391 19.1765 15.4327C19.2738 15.5262 19.3869 15.6351 19.4278 15.6746C19.4688 15.7141 19.6209 15.8604 19.7659 15.9996C20.0705 16.2919 20.5911 16.8077 20.5911 16.817C20.5911 16.8205 20.4079 17.0063 20.1838 17.23L19.7765 17.6366L19.5308 17.3908C19.3957 17.2557 19.2083 17.0714 19.1145 16.9812C19.0206 16.8911 18.8727 16.7491 18.7857 16.6657C18.6986 16.5822 18.587 16.4747 18.5375 16.4268C18.446 16.3381 18.4225 16.3155 18.0783 15.9839C18.0471 15.9538 18.0108 15.9189 17.9727 15.8822C17.8801 15.793 17.7769 15.6935 17.7092 15.6283C17.6136 15.5362 17.4978 15.4247 17.4517 15.3804C17.3244 15.2581 17.2219 15.1591 17.126 15.066C17.0782 15.0196 17.0313 14.9756 17.0219 14.9682L17.0046 14.9547L16.8574 15.0961C16.7765 15.1739 16.667 15.2795 16.6141 15.3307C16.5612 15.382 16.4816 15.4587 16.4373 15.5013C16.3929 15.5438 16.2771 15.6554 16.1798 15.7492C16.0825 15.8431 15.8355 16.0811 15.6307 16.2782C15.426 16.4752 15.2249 16.6688 15.184 16.7083C15.143 16.7479 15.03 16.8565 14.9327 16.9498C14.7202 17.1536 14.265 17.6082 14.1568 17.7246C13.7736 18.1368 13.5056 18.4722 13.3152 18.7776C13.0117 19.2644 12.8417 19.7486 12.7978 20.2517C12.789 20.3521 12.7937 20.5251 12.8078 20.6172C12.8766 21.0685 13.1215 21.5156 13.5033 21.8869C13.8079 22.1831 14.1589 22.3737 14.5126 22.4348C14.9454 22.5095 15.3664 22.3883 15.8323 22.0547L15.8851 22.017L16.2972 22.4285C16.6584 22.789 16.7084 22.8412 16.7012 22.8498C16.6795 22.876 16.4545 23.0386 16.3225 23.1236C15.7672 23.4811 15.1696 23.6486 14.5915 23.6087C13.6697 23.5452 12.8001 23.0078 12.2014 22.1316C11.8136 21.564 11.6199 20.9493 11.6338 20.33C11.6443 19.8607 11.7624 19.3429 11.9704 18.8542C12.1908 18.3364 12.5009 17.8577 12.9692 17.3127C13.3073 16.9191 13.5732 16.6486 14.4488 15.8074C14.576 15.6852 14.7043 15.5616 14.7931 15.4757C14.906 15.3665 15.5802 14.7173 15.8572 14.4511C15.9032 14.4068 15.9814 14.3313 16.0309 14.2834C16.1162 14.2007 16.4494 13.8813 16.7474 13.5965C16.8224 13.5249 16.9103 13.4405 16.9428 13.4091C16.9753 13.3776 17.0044 13.3518 17.0075 13.3518C17.0106 13.3517 17.0441 13.3817 17.0819 13.4185ZM9.48523 15.6317C9.48523 15.6424 9.26739 15.7143 9.13208 15.7482C8.93791 15.7969 8.7784 15.8191 8.62281 15.8192C8.49529 15.8192 8.41174 15.8091 8.29641 15.7794C7.83495 15.661 7.33525 15.2669 7.09993 14.836C6.98 14.6163 6.92133 14.3723 6.94026 14.1717C6.96187 13.9428 7.04106 13.7388 7.20398 13.4923L7.26044 13.4069L8.37283 14.5174C8.98465 15.1282 9.48523 15.6296 9.48523 15.6317ZM26.8086 13.508C26.982 13.7732 27.0622 14.0079 27.0623 14.2507C27.0624 14.4343 27.0222 14.5936 26.9281 14.7824C26.8375 14.9643 26.7248 15.1144 26.556 15.278C26.2834 15.5422 25.9424 15.7343 25.6384 15.7949C25.533 15.8159 25.4964 15.8194 25.3841 15.8194C25.266 15.8193 25.2104 15.8143 25.0769 15.7916C24.899 15.7614 24.7008 15.7067 24.5406 15.6438L24.5223 15.6366L25.6325 14.5282C26.2432 13.9185 26.7446 13.4198 26.7468 13.4198C26.749 13.4198 26.7768 13.4595 26.8086 13.508ZM17.292 15.7653C17.627 16.0883 17.8954 16.3472 18.0101 16.4581C18.0562 16.5026 18.2865 16.724 18.522 16.9501C18.7574 17.1761 19.0742 17.4849 19.2258 17.6361L19.5015 17.9111L18.2673 19.1433C17.0396 20.3689 17.033 20.3754 17.0209 20.3632C17.0087 20.3511 17.0085 20.3511 16.9958 20.3631L16.9829 20.3752L15.7484 19.1428L14.5139 17.9104L14.8086 17.6174C14.9707 17.4562 15.1829 17.2479 15.2802 17.1546C15.5933 16.854 15.873 16.5847 16.0494 16.414C16.0955 16.3693 16.1654 16.302 16.2046 16.2644C16.2439 16.2267 16.4393 16.0383 16.6389 15.8456C16.8386 15.6529 17.004 15.4951 17.0066 15.495C17.0093 15.4949 17.1377 15.6165 17.292 15.7653ZM21.9116 16.2087C22.1726 16.4404 22.4275 16.644 22.6696 16.814C22.7054 16.8392 22.736 16.8608 22.7376 16.862C22.7409 16.8645 18.1082 21.4905 18.1024 21.4905C18.0936 21.4905 17.8081 21.2065 17.6917 21.0821C17.623 21.0086 17.5484 20.929 17.5258 20.9052C17.3661 20.7361 17.3028 20.6673 17.3028 20.6627C17.3028 20.658 21.8262 16.1389 21.8309 16.1389C21.832 16.1389 21.8683 16.1703 21.9116 16.2087ZM15.6304 19.5763C16.7543 20.6983 17.0091 20.9497 17.0163 20.9438C17.0232 20.938 17.0288 20.9409 17.044 20.958C17.0544 20.9699 17.0983 21.0171 17.1415 21.0631C17.1846 21.1091 17.2837 21.215 17.3615 21.2985C17.6131 21.5682 17.8121 21.7594 18.0163 21.9277C18.108 22.0033 18.1362 22.0242 18.2676 22.1135C18.7403 22.4349 19.2033 22.5293 19.6613 22.3977C19.9799 22.3061 20.2694 22.1285 20.5385 21.8594C21.006 21.3918 21.2543 20.8168 21.2183 20.2848C21.1958 19.9523 21.1073 19.6016 20.9621 19.2704L20.9378 19.215L21.3678 18.7858L21.7977 18.3565L21.8118 18.3797C21.8424 18.4298 21.9994 18.7485 22.0353 18.8333C22.2179 19.2651 22.3229 19.665 22.3694 20.1062C22.3838 20.2421 22.3838 20.5292 22.3695 20.6583C22.3269 21.0424 22.2289 21.3739 22.0555 21.7197C21.8038 22.2219 21.4148 22.6859 20.9696 23.0152C20.539 23.3337 20.0711 23.5283 19.5798 23.593C18.951 23.6759 18.3095 23.5169 17.6968 23.1265C17.482 22.9896 17.242 22.8038 17.0965 22.6619C17.0462 22.6127 17.005 22.5751 17.005 22.5781C17.005 22.5812 16.2288 21.8089 15.2802 20.8618C14.3315 19.9148 13.5553 19.1378 13.5553 19.1353C13.5553 19.1272 13.661 18.9566 13.7242 18.8628C13.795 18.7576 13.9054 18.609 13.9922 18.5019C14.0734 18.4017 14.2449 18.2015 14.2496 18.2015C14.2516 18.2015 14.873 18.8202 15.6304 19.5763ZM14.492 20.6263C15.1689 21.3021 15.6032 21.7401 15.5995 21.7433C15.5834 21.7575 15.4872 21.8212 15.4291 21.8562C15.2439 21.9675 15.0497 22.0391 14.8749 22.0607C14.7994 22.07 14.6465 22.0654 14.5697 22.0514C14.2619 21.9956 13.9331 21.7964 13.6786 21.5115C13.4032 21.2033 13.2397 20.8821 13.192 20.5552C13.1626 20.3536 13.201 20.0382 13.2908 19.7438C13.3179 19.6551 13.3692 19.5146 13.3745 19.5146C13.3767 19.5146 13.8796 20.0149 14.492 20.6263ZM20.6644 19.5704C20.7609 19.8151 20.8331 20.1639 20.8331 20.3858C20.8331 20.7046 20.7056 21.0396 20.4626 21.3592C20.2713 21.6108 20.0465 21.8036 19.8001 21.9276C19.4093 22.1241 19.0563 22.114 18.6523 21.8947C18.5825 21.8568 18.4134 21.7473 18.4134 21.74C18.4134 21.7311 20.6373 19.5149 20.6417 19.5194C20.6441 19.5219 20.6543 19.5448 20.6644 19.5704Z" fill="#B5D4F6"/>
<path d="M19.4374 0.393989C19.9773 0.435204 20.5068 0.64082 20.9789 0.992557C21.4885 1.37216 21.9219 1.9283 22.1577 2.50502C22.2689 2.77699 22.3347 3.03499 22.3696 3.33595C22.384 3.461 22.384 3.76012 22.3695 3.89651C22.2816 4.72274 21.9647 5.49377 21.4051 6.24239C21.0377 6.73407 20.6285 7.17375 19.7815 7.987C19.7371 8.02959 19.6659 8.0981 19.6232 8.13923C19.5806 8.18035 19.4731 8.28378 19.3844 8.36906C19.2957 8.45434 19.0541 8.68685 18.8477 8.88575C18.3923 9.32445 18.1707 9.53783 18.0598 9.64452C18.0137 9.68881 17.9383 9.76134 17.8922 9.8057C17.689 10.0014 17.6442 10.0444 17.4889 10.1929C17.3985 10.2794 17.2624 10.4098 17.1864 10.4828C17.0304 10.6326 17.0098 10.6514 17.0039 10.6494C17.0015 10.6486 16.968 10.6173 16.9293 10.5798C16.8907 10.5423 16.7949 10.4504 16.7165 10.3754C16.3819 10.0555 15.9731 9.66318 15.8323 9.52694C15.7897 9.48566 15.6347 9.33641 15.488 9.19527C15.3413 9.05414 15.1389 8.85926 15.0382 8.76221C14.6527 8.39058 14.4478 8.19337 14.1727 7.92908C13.9408 7.70638 13.425 7.1935 13.425 7.18562C13.425 7.18217 13.6083 6.99639 13.8323 6.77278L14.2395 6.3662L14.4822 6.60914C14.6157 6.74276 14.7737 6.89906 14.8334 6.95647C14.8932 7.01389 14.9755 7.09316 15.0165 7.13264C15.0574 7.17212 15.1244 7.23643 15.1654 7.27555C15.2063 7.31468 15.3166 7.42064 15.4104 7.51101C15.5043 7.60139 15.6676 7.75867 15.7734 7.86053C15.9804 8.05984 16.0998 8.17513 16.2418 8.31273C16.2913 8.36066 16.4058 8.47088 16.4961 8.55765C16.5865 8.64443 16.7381 8.79032 16.8328 8.88186L17.0052 9.04829L17.0377 9.01847C17.0555 9.00207 17.1455 8.91607 17.2376 8.82735C17.3298 8.73864 17.4415 8.63113 17.4858 8.58846C17.5302 8.54577 17.6447 8.43548 17.7402 8.34334C18.0589 8.03605 18.6566 7.46048 18.8136 7.30971C19.2632 6.87784 19.4154 6.72936 19.5909 6.55155C20.271 5.8624 20.6388 5.3881 20.903 4.85967C21.1162 4.43296 21.2471 3.8685 21.2181 3.50009C21.2097 3.3939 21.1941 3.29579 21.1709 3.20449C21.0652 2.78824 20.7874 2.35266 20.4236 2.03268C20.0179 1.67583 19.5411 1.50367 19.1008 1.55508C18.8068 1.58943 18.5034 1.71611 18.2117 1.92637L18.1311 1.98452L17.7168 1.57164L17.3025 1.15877L17.3197 1.1446C17.3721 1.10146 17.535 0.982182 17.6129 0.929843C18.0866 0.611534 18.5702 0.43321 19.0648 0.394448C19.1607 0.386928 19.3421 0.386705 19.4374 0.393989Z" fill="#5AA1EC"/>
<path d="M14.9417 0.394175C15.4328 0.431135 15.8961 0.598564 16.3721 0.911193C16.5032 0.997259 16.6468 1.10556 16.8129 1.24363C16.9457 1.35405 17.0342 1.4413 18.7076 3.11213L20.4629 4.86479L20.4112 4.95049C20.3489 5.05375 20.2674 5.17629 20.192 5.28016C20.1008 5.40583 19.9015 5.65064 19.7862 5.77875L19.7645 5.8028L18.3892 4.42984C17.3173 3.35969 17.011 3.05726 17.0007 3.0586C16.9903 3.05995 16.9347 3.00403 16.744 2.80017C16.3932 2.42513 16.2396 2.27542 16.003 2.07825C15.9108 2.00145 15.8844 1.98174 15.7579 1.8954C15.491 1.71328 15.2462 1.60888 14.9792 1.56343C14.8714 1.54506 14.656 1.54355 14.5493 1.56041C14.3254 1.5958 14.1142 1.6739 13.9075 1.79779C13.479 2.05453 13.0836 2.53088 12.9082 3.00148C12.8588 3.13397 12.8238 3.27283 12.8037 3.41647C12.793 3.49252 12.7928 3.73379 12.8034 3.81908C12.8436 4.14501 12.9313 4.46286 13.0587 4.74478L13.0782 4.78783L12.6474 5.21789L12.2166 5.64796L12.1783 5.57745C11.9928 5.23606 11.8479 4.87295 11.7582 4.5252C11.6399 4.06627 11.6054 3.64815 11.6543 3.26472C11.729 2.67843 11.9863 2.10861 12.4095 1.59238C12.982 0.894098 13.7699 0.455991 14.5635 0.394627C14.6637 0.386885 14.8419 0.386674 14.9417 0.394175Z" fill="#5AA1EC"/>
<path d="M16.0358 2.62778C16.1391 2.72679 16.2441 2.83503 16.4376 3.0419C16.4821 3.08951 16.5624 3.17527 16.616 3.23248C16.6695 3.2897 16.7134 3.33848 16.7134 3.34088C16.7134 3.34329 15.6932 4.36374 14.4462 5.60857L12.1791 7.87189L12.1549 7.85079C12.1416 7.83918 12.0834 7.78821 12.0256 7.7375C11.8245 7.56112 11.6029 7.38394 11.4031 7.23969C11.3404 7.19441 11.2846 7.15475 11.2791 7.15157C11.2709 7.14687 11.7048 6.71067 13.5891 4.82932C15.1785 3.24237 15.9118 2.51431 15.9174 2.51744C15.9219 2.51996 15.9752 2.56961 16.0358 2.62778Z" fill="#5AA1EC"/>
<path d="M8.8772 6.64659C9.67171 6.7227 10.4263 7.01849 11.1547 7.53931C11.4604 7.75787 11.7213 7.97632 12.1194 8.34688C12.2425 8.46144 12.8254 9.04896 13.1212 9.3565C13.2932 9.53536 13.4732 9.7221 13.5212 9.7715C13.5691 9.8209 13.6474 9.90173 13.695 9.95113C13.7426 10.0005 13.818 10.0786 13.8626 10.1246C13.9072 10.1705 13.9843 10.25 14.0338 10.3011C14.1159 10.3857 14.5531 10.8386 14.7276 11.0198C14.767 11.0608 14.8384 11.1346 14.8862 11.1839C15.1543 11.4607 15.6679 11.9978 15.6679 12.0015C15.6679 12.0053 15.147 12.5502 14.8924 12.8127C14.8412 12.8655 14.7698 12.9394 14.7337 12.9769C14.6976 13.0143 14.5079 13.2109 14.3121 13.4136C14.1164 13.6163 13.885 13.856 13.7978 13.9462C13.7107 14.0365 13.5974 14.1536 13.5461 14.2064C13.3772 14.38 13.2936 14.4666 13.0466 14.7236C12.9123 14.8633 12.6648 15.1155 12.4965 15.2841L12.1904 15.5907L11.7802 15.1813L11.3701 14.7719L11.6334 14.5093C11.7782 14.3648 12.0107 14.1282 12.1501 13.9834C12.2895 13.8386 12.4387 13.6839 12.4816 13.6396C12.5244 13.5953 12.632 13.4838 12.7207 13.3919C12.8093 13.2999 12.924 13.1814 12.9755 13.1286C13.027 13.0758 13.1889 12.9086 13.3352 12.757C13.8569 12.2165 13.925 12.146 13.9952 12.0742L14.0663 12.0016L13.9923 11.9257C13.9516 11.8839 13.8819 11.8121 13.8373 11.7661C13.7928 11.72 13.7186 11.6433 13.6725 11.5956C13.6264 11.5479 13.469 11.3849 13.3227 11.2333C13.1765 11.0817 13.0146 10.9144 12.9631 10.8616C12.9116 10.8088 12.7969 10.6905 12.7083 10.5986C12.6196 10.5067 12.5121 10.3952 12.4693 10.3508C12.4264 10.3064 12.3134 10.1893 12.2181 10.0905C11.3777 9.21922 10.9937 8.86117 10.5384 8.52408C9.96424 8.09909 9.39041 7.86194 8.79123 7.80204C8.63977 7.78691 8.44079 7.79691 8.29088 7.82722C7.90419 7.90537 7.49635 8.13286 7.16559 8.45489C6.83729 8.77452 6.62879 9.15085 6.56486 9.53923C6.54927 9.63391 6.54934 9.88296 6.56498 9.97281C6.5934 10.136 6.64032 10.2829 6.71143 10.4312C6.77629 10.5664 6.83874 10.6691 6.97552 10.8652C6.98469 10.8783 6.16094 11.7004 6.14872 11.6903C6.13029 11.675 5.98607 11.4777 5.91433 11.3695C5.6099 10.9108 5.44088 10.4528 5.39654 9.96661C5.38737 9.86613 5.38897 9.63259 5.39959 9.52199C5.48499 8.63208 6.02579 7.78022 6.87007 7.20576C7.31663 6.90192 7.79684 6.71506 8.28228 6.65627C8.4209 6.63948 8.41779 6.63965 8.61041 6.63845C8.72219 6.63775 8.81419 6.64056 8.8772 6.64659Z" fill="#5AA1EC"/>
<path d="M9.9563 8.60173C10.1926 8.74326 10.4564 8.93904 10.7312 9.17688L10.8063 9.24192L9.42481 10.6213C8.09659 11.9475 8.04373 12.0012 8.05389 12.0124C8.06398 12.0235 8.06326 12.0252 8.03807 12.0485C7.42594 12.6152 7.2844 12.7573 7.06609 13.0243C6.82256 13.322 6.65461 13.6335 6.59106 13.9053C6.55826 14.0456 6.55408 14.0837 6.55385 14.2436C6.55369 14.3617 6.55613 14.4104 6.5649 14.4634C6.64534 14.9505 6.94682 15.4086 7.42478 15.7699C7.74582 16.0127 8.11223 16.1662 8.45446 16.2014C8.55523 16.2118 8.78824 16.2053 8.89824 16.189C9.17894 16.1474 9.44146 16.0753 9.68377 15.973L9.78614 15.9298L10.2158 16.358L10.6454 16.7861L10.6315 16.7969C10.6045 16.8178 10.275 16.9794 10.1646 17.0259C9.73352 17.2078 9.31064 17.3167 8.8834 17.3559C8.76471 17.3668 8.49907 17.3684 8.39325 17.3589C7.87669 17.3124 7.38908 17.138 6.92633 16.8345C6.30477 16.4267 5.82765 15.8612 5.58416 15.2437C5.49441 15.0161 5.4415 14.8132 5.40823 14.5689C5.39206 14.4501 5.38557 14.1741 5.39598 14.0484C5.44591 13.4464 5.69653 12.8733 6.16289 12.2945C6.36614 12.0423 6.3365 12.0726 8.13265 10.2779C9.083 9.32825 9.86315 8.55129 9.86632 8.55129C9.86948 8.55129 9.90998 8.57399 9.9563 8.60173Z" fill="#5AA1EC"/>
<path d="M12.8728 16.8285C12.8728 16.8313 12.8315 16.8801 12.781 16.9369C12.571 17.1731 12.3517 17.4467 12.1932 17.6704C12.1697 17.7036 12.1489 17.7308 12.1471 17.7308C12.1453 17.7308 11.1012 16.6899 9.82693 15.4178L7.51005 13.1048L7.52652 13.0832C7.56382 13.0344 7.86011 12.7434 8.09186 12.528L8.33955 12.2977L10.6062 14.5605C11.8529 15.8051 12.8728 16.8257 12.8728 16.8285Z" fill="#5AA1EC"/>
<path d="M17.0819 13.4185C17.1198 13.4553 17.1843 13.5175 17.2252 13.5567C17.6039 13.9191 17.8795 14.1833 18.0349 14.333C18.0776 14.3741 18.1893 14.4815 18.2831 14.5717C18.3769 14.6619 18.4942 14.7748 18.5437 14.8227C18.5932 14.8705 18.6727 14.9473 18.7205 14.9934C18.7683 15.0394 18.8506 15.1188 18.9035 15.1698C18.9564 15.2208 19.0793 15.3391 19.1765 15.4327C19.2738 15.5262 19.3869 15.6351 19.4278 15.6746C19.4688 15.7141 19.6209 15.8604 19.7659 15.9996C20.0705 16.2919 20.5911 16.8077 20.5911 16.817C20.5911 16.8205 20.4079 17.0063 20.1838 17.23L19.7765 17.6366L19.5308 17.3908C19.3957 17.2557 19.2083 17.0714 19.1145 16.9812C19.0206 16.8911 18.8727 16.7491 18.7857 16.6657C18.6986 16.5822 18.587 16.4747 18.5375 16.4268C18.446 16.3381 18.4225 16.3155 18.0783 15.9839L17.9727 15.8822C17.8801 15.793 17.7769 15.6935 17.7092 15.6283C17.6136 15.5362 17.4978 15.4247 17.4517 15.3804C17.3244 15.2581 17.2219 15.1591 17.126 15.066C17.0782 15.0196 17.0313 14.9756 17.0219 14.9682L17.0046 14.9547L16.8574 15.0961C16.7765 15.1739 16.667 15.2795 16.6141 15.3307C16.5612 15.382 16.4816 15.4587 16.4373 15.5013C16.3929 15.5438 16.2771 15.6554 16.1798 15.7492C16.0825 15.8431 15.8355 16.0811 15.6307 16.2782C15.426 16.4752 15.2249 16.6688 15.184 16.7083C15.143 16.7479 15.03 16.8565 14.9327 16.9498C14.7202 17.1536 14.265 17.6082 14.1568 17.7246C13.7736 18.1368 13.5056 18.4722 13.3152 18.7776C13.0117 19.2644 12.8417 19.7486 12.7978 20.2517C12.789 20.3521 12.7937 20.5251 12.8078 20.6172C12.8766 21.0685 13.1215 21.5156 13.5033 21.8869C13.8079 22.1831 14.1589 22.3737 14.5126 22.4348C14.9454 22.5095 15.3664 22.3883 15.8323 22.0547L15.8851 22.017L16.2972 22.4285C16.6584 22.789 16.7084 22.8412 16.7012 22.8498C16.6795 22.876 16.4545 23.0386 16.3225 23.1236C15.7672 23.4811 15.1696 23.6486 14.5915 23.6087C13.6697 23.5452 12.8001 23.0078 12.2014 22.1316C11.8136 21.564 11.6199 20.9493 11.6338 20.33C11.6443 19.8607 11.7624 19.3429 11.9704 18.8542C12.1908 18.3364 12.5009 17.8577 12.9692 17.3127C13.3073 16.9191 13.5732 16.6486 14.4488 15.8074C14.576 15.6852 14.7043 15.5616 14.7931 15.4757C14.906 15.3665 15.5802 14.7173 15.8572 14.4511C15.9032 14.4068 15.9814 14.3313 16.0309 14.2834C16.1162 14.2007 16.4494 13.8813 16.7474 13.5965C16.8224 13.5249 16.9103 13.4405 16.9428 13.4091C16.9753 13.3776 17.0044 13.3518 17.0075 13.3518C17.0106 13.3517 17.0441 13.3817 17.0819 13.4185Z" fill="#5AA1EC"/>
<path d="M15.6304 19.5763C16.7543 20.6983 17.0091 20.9497 17.0163 20.9438C17.0232 20.938 17.0288 20.9409 17.044 20.958C17.0544 20.9699 17.0983 21.0171 17.1415 21.0631C17.1846 21.1091 17.2837 21.215 17.3615 21.2985C17.6131 21.5682 17.8121 21.7594 18.0163 21.9277C18.108 22.0033 18.1362 22.0242 18.2676 22.1135C18.7403 22.4349 19.2033 22.5293 19.6613 22.3977C19.9799 22.3061 20.2694 22.1285 20.5385 21.8594C21.006 21.3918 21.2543 20.8168 21.2183 20.2848C21.1958 19.9523 21.1073 19.6016 20.9621 19.2704L20.9378 19.215L21.3678 18.7858L21.7977 18.3565L21.8118 18.3797C21.8424 18.4298 21.9994 18.7485 22.0353 18.8333C22.2179 19.2651 22.3229 19.665 22.3694 20.1062C22.3838 20.2421 22.3838 20.5292 22.3695 20.6583C22.3269 21.0424 22.2289 21.3739 22.0555 21.7197C21.8038 22.2219 21.4148 22.6859 20.9696 23.0152C20.539 23.3337 20.0711 23.5283 19.5798 23.593C18.951 23.6759 18.3095 23.5169 17.6968 23.1265C17.482 22.9896 17.242 22.8038 17.0965 22.6619C17.0462 22.6127 17.005 22.5751 17.005 22.5781C17.005 22.5812 16.2288 21.8089 15.2802 20.8618C14.3315 19.9148 13.5553 19.1378 13.5553 19.1353C13.5553 19.1272 13.661 18.9566 13.7242 18.8628C13.795 18.7576 13.9054 18.609 13.9922 18.5019C14.0734 18.4017 14.2449 18.2015 14.2496 18.2015C14.2516 18.2015 14.873 18.8202 15.6304 19.5763Z" fill="#5AA1EC"/>
<path d="M21.9116 16.2087C22.1726 16.4404 22.4275 16.644 22.6696 16.814C22.7054 16.8392 22.736 16.8608 22.7376 16.862C22.7409 16.8645 18.1082 21.4905 18.1024 21.4905C18.0936 21.4905 17.8081 21.2065 17.6917 21.0821C17.623 21.0086 17.5484 20.929 17.5258 20.9052C17.3661 20.7361 17.3028 20.6673 17.3028 20.6627C17.3028 20.658 21.8262 16.1389 21.8309 16.1389C21.832 16.1389 21.8683 16.1703 21.9116 16.2087Z" fill="#5AA1EC"/>
<path d="M25.6346 6.64705C26.0336 6.6846 26.4435 6.81099 26.8086 7.00907C27.5555 7.41424 28.1411 8.05625 28.4243 8.78046C28.5915 9.20796 28.6476 9.64697 28.5912 10.0874C28.5122 10.7052 28.2078 11.3045 27.6613 11.9177C27.6163 11.9682 27.5909 12.0016 27.593 12.0072C27.5954 12.0133 27.026 12.5858 25.8729 13.7369C24.925 14.6833 24.1471 15.4576 24.1444 15.4576C24.1361 15.4576 23.9563 15.3479 23.8672 15.2885C23.6832 15.1657 23.4779 15.0063 23.2633 14.8197L23.203 14.7672L24.588 13.3845L25.973 12.0018L25.9591 11.987L25.9452 11.9723L26.1206 11.809C26.2171 11.7192 26.317 11.6262 26.3426 11.6023C26.4565 11.4962 26.7502 11.1973 26.8208 11.1156C26.9717 10.9412 27.0076 10.8947 27.1177 10.7316C27.2982 10.4641 27.4006 10.2126 27.4417 9.93564C27.4522 9.86457 27.4522 9.63696 27.4417 9.5702C27.4067 9.34832 27.3425 9.1618 27.2351 8.9694C26.9676 8.49037 26.4666 8.0718 25.9446 7.89116C25.6188 7.77843 25.3155 7.76612 24.9038 7.84896C24.7219 7.88557 24.5019 7.95334 24.3235 8.0277L24.2246 8.06892L23.7947 7.63977C23.5583 7.40373 23.3668 7.20864 23.3693 7.20621C23.3769 7.19876 23.5796 7.09532 23.6778 7.04871C24.1501 6.82475 24.614 6.69704 25.1483 6.64393C25.2394 6.63487 25.5246 6.6367 25.6346 6.64705Z" fill="#5AA1EC"/>
<path d="M26.457 10.9398C26.3949 11.0092 26.2006 11.203 26.085 11.3108C26.0303 11.3619 25.9465 11.4401 25.8988 11.4848C25.8512 11.5294 25.78 11.5956 25.7408 11.6318L25.6695 11.6977L23.4037 9.43584L21.138 7.17397L21.1577 7.15101C21.1686 7.13838 21.2179 7.08217 21.2674 7.02612C21.4511 6.81805 21.6712 6.54248 21.8041 6.35436L21.8661 6.26652L24.1831 8.57915L26.5 10.8918L26.457 10.9398Z" fill="#5AA1EC"/>
<path d="M22.231 8.81638L22.6392 9.22393L22.3512 9.51165C22.1928 9.6699 21.913 9.95546 21.7293 10.1462C21.4309 10.4562 21.3253 10.5656 20.9945 10.908C20.945 10.9591 20.8639 11.0428 20.8142 11.0939C20.6525 11.2603 20.2856 11.6402 19.9986 11.9383C19.9679 11.9702 19.9428 11.9987 19.9428 12.0015C19.9428 12.0067 20.0241 12.0921 20.3612 12.441C20.6368 12.7263 20.7032 12.795 20.802 12.8964C20.8517 12.9475 20.9649 13.0645 21.0536 13.1565C21.1422 13.2485 21.2526 13.3628 21.299 13.4105C21.3454 13.4582 21.5281 13.6477 21.705 13.8317C22.0711 14.2123 22.6154 14.7578 22.772 14.9011C23.2993 15.3835 23.6751 15.6592 24.0873 15.8662C24.4323 16.0394 24.7497 16.1392 25.1235 16.1919C25.2184 16.2053 25.4616 16.2106 25.5498 16.2013C26.0805 16.1448 26.6555 15.8057 27.0422 15.3213C27.2531 15.0571 27.3914 14.754 27.4385 14.4529C27.4522 14.3655 27.454 14.1497 27.4417 14.067C27.3994 13.7816 27.2966 13.5335 27.1033 13.2506C27.0688 13.2001 27.0372 13.154 27.033 13.1482C27.0264 13.1389 27.0761 13.087 27.4398 12.724L27.8542 12.3103L27.9361 12.4194C28.2333 12.815 28.4279 13.2011 28.5294 13.5963C28.6283 13.9817 28.6395 14.3636 28.5631 14.7474C28.4495 15.3181 28.1553 15.8571 27.708 16.3141C27.1587 16.8754 26.4638 17.2438 25.7718 17.3407C25.5823 17.3672 25.3043 17.3736 25.1173 17.3558C24.3928 17.287 23.6853 17.0255 23.013 16.5781C22.5053 16.2402 21.9623 15.7633 21.2576 15.0363C21.1525 14.9279 21.0838 14.8568 20.6594 14.417C20.5624 14.3165 20.4062 14.1548 20.3123 14.0577C20.2183 13.9606 20.1051 13.8436 20.0606 13.7976C20.0161 13.7516 19.9028 13.6345 19.8089 13.5374C19.7149 13.4404 19.5224 13.2411 19.3812 13.0946C19.2399 12.9481 19.0625 12.7641 18.9869 12.6858C18.9113 12.6074 18.8386 12.5316 18.8253 12.5173C18.812 12.503 18.6965 12.3824 18.5685 12.2492C18.4405 12.1161 18.3358 12.0046 18.3358 12.0014C18.3358 11.9966 18.5801 11.7397 18.9097 11.3978C18.9558 11.35 19.0258 11.2774 19.0653 11.2365C19.1047 11.1955 19.2525 11.0422 19.3937 10.8957C19.5349 10.7492 19.7259 10.5513 19.8182 10.4559C19.9105 10.3605 20.0236 10.2435 20.0697 10.1958C20.1157 10.1481 20.1982 10.0631 20.2529 10.0069C20.3077 9.95066 20.464 9.789 20.6002 9.64762C20.9562 9.27815 21.1495 9.078 21.2732 8.9508C21.4073 8.81279 21.8143 8.40882 21.8192 8.40882C21.8211 8.40882 22.0064 8.59222 22.231 8.81638Z" fill="#5AA1EC"/>
</svg>
